<svg width="713" height="116" viewBox="0 0 713 116" fill="none" xmlns="http://www.w3.org/2000/svg">
<g filter="url(#filter0_d_119_267)">
<path d="M84.0554 14.1844H22.1199C17.2535 14.1844 13.272 18.1659 13.272 23.0323V84.9678C13.272 89.8341 17.2535 93.8157 22.1199 93.8157H84.0554C88.9218 93.8157 92.9033 89.8341 92.9033 84.9678V23.0323C92.9033 18.1659 88.9218 14.1844 84.0554 14.1844ZM39.8158 76.1199H30.9678V54H39.8158V76.1199ZM57.5116 76.1199H48.6637V62.848H57.5116V76.1199ZM57.5116 54H48.6637V45.1521H57.5116V54ZM75.2075 76.1199H66.3595V31.8802H75.2075V76.1199Z" fill="#FF6C00"/>
<path d="M114.89 82.7559C113.946 82.7559 113.144 82.4728 112.483 81.9065C111.823 81.2931 111.492 80.5381 111.492 79.6415V36.322C111.492 35.4254 111.799 34.694 112.412 34.1277C113.073 33.5142 113.899 33.2075 114.89 33.2075H131.453C135.464 33.2075 139.003 33.9625 142.071 35.4726C145.138 36.9826 147.521 39.1061 149.22 41.8431C150.966 44.5329 151.839 47.6238 151.839 51.1157V64.7062C151.839 68.1981 150.966 71.3126 149.22 74.0496C147.521 76.7865 145.114 78.9336 142 80.4909C138.933 82.0009 135.417 82.7559 131.453 82.7559H114.89ZM130.745 76.9517C135.275 76.9517 138.815 75.8899 141.363 73.7664C143.911 71.5957 145.185 68.5992 145.185 64.7769V51.045C145.185 47.2698 143.911 44.3205 141.363 42.197C138.815 40.0735 135.275 39.0118 130.745 39.0118H118.146V76.9517H130.745Z" fill="#49BCCF"/>
<path d="M171.007 83.393C166.949 83.393 163.669 82.3076 161.168 80.137C158.715 77.9663 157.488 75.1113 157.488 71.5722C157.488 67.9858 158.785 65.1073 161.381 62.9366C163.976 60.7187 167.397 59.6097 171.644 59.6097C176.174 59.6097 179.902 61.2142 182.828 64.423L183.111 64.1399C182.592 63.5736 182.002 62.9838 181.342 62.3703V59.3974C181.342 56.9908 180.587 55.1268 179.077 53.8055C177.567 52.4842 175.419 51.8236 172.635 51.8236C167.68 51.8236 164.141 53.7819 162.018 57.6986C161.263 57.3211 160.626 56.8256 160.107 56.2121C159.635 55.5515 159.399 54.8909 159.399 54.2302C159.399 52.9561 160.036 51.7528 161.31 50.6203C162.584 49.4405 164.259 48.4967 166.336 47.7889C168.459 47.0811 170.677 46.7272 172.989 46.7272C177.472 46.7272 180.988 47.8361 183.536 50.054C186.131 52.2719 187.429 55.3391 187.429 59.2558V78.6505C187.429 80.3021 186.957 81.5054 186.013 82.2605C185.07 83.0155 183.583 83.393 181.554 83.393V80.0662C182.545 79.028 183.088 78.4146 183.182 78.2258L182.899 77.9427C179.832 81.5762 175.868 83.393 171.007 83.393ZM172.069 78.5089C174.995 78.5089 177.283 77.8955 178.935 76.6686C180.634 75.4416 181.483 73.7428 181.483 71.5722C181.483 69.4015 180.657 67.6791 179.006 66.405C177.354 65.1309 175.089 64.4938 172.211 64.4938C169.521 64.4938 167.397 65.1309 165.84 66.405C164.33 67.6319 163.575 69.3543 163.575 71.5722C163.575 73.79 164.306 75.5124 165.769 76.7393C167.279 77.9191 169.379 78.5089 172.069 78.5089Z" fill="#49BCCF"/>
<path d="M208.774 83.393C206.367 83.393 204.102 83.0391 201.979 82.3312C199.855 81.5762 198.133 80.5145 196.812 79.146C195.538 77.7775 194.901 76.1731 194.901 74.3327C194.901 72.0676 196.269 70.8407 199.006 70.652C199.478 73.2945 200.587 75.2529 202.333 76.527C204.126 77.7539 206.391 78.3674 209.128 78.3674C211.865 78.3674 213.988 77.9663 215.499 77.164C217.009 76.3618 217.764 75.1349 217.764 73.4833C217.764 72.3036 217.457 71.3598 216.843 70.652C216.23 69.8969 215.239 69.2599 213.87 68.7408C212.549 68.1745 210.638 67.6319 208.137 67.1128C205.023 66.405 202.545 65.6499 200.705 64.8477C198.864 64.0455 197.449 62.9838 196.458 61.6625C195.514 60.3412 195.042 58.5952 195.042 56.4245C195.042 54.5841 195.608 52.9325 196.741 51.4697C197.873 49.9596 199.431 48.8035 201.413 48.0013C203.442 47.1519 205.73 46.7272 208.279 46.7272C210.638 46.7272 212.856 47.0575 214.932 47.7181C217.056 48.3788 218.755 49.3226 220.029 50.5495C221.35 51.7764 222.011 53.1921 222.011 54.7965C222.011 55.8818 221.586 56.7548 220.736 57.4155C219.887 58.0289 218.707 58.3828 217.197 58.4772C217.056 56.4009 216.206 54.7729 214.649 53.5932C213.139 52.3662 211.016 51.7528 208.279 51.7528C206.014 51.7528 204.22 52.1775 202.899 53.0269C201.578 53.8763 200.917 55.0088 200.917 56.4245C200.917 57.9345 201.531 59.0671 202.757 59.8221C204.032 60.5299 206.179 61.2142 209.199 61.8748C214.154 62.8658 217.787 64.2343 220.099 65.9803C222.459 67.6791 223.639 70.1093 223.639 73.271C223.639 76.4798 222.341 78.9808 219.746 80.774C217.15 82.52 213.493 83.393 208.774 83.393Z" fill="#49BCCF"/>
<path d="M231.769 37.8084C231.769 36.1096 232.288 34.8119 233.326 33.9154C234.364 33.0188 235.898 32.5705 237.927 32.5705V51.1865C237.266 51.9415 236.747 52.6022 236.37 53.1685L236.653 53.4516C238.116 51.4697 239.956 49.8652 242.174 48.6383C244.392 47.3642 246.798 46.7272 249.394 46.7272C253.216 46.7272 256.236 47.8597 258.454 50.1248C260.672 52.3898 261.781 55.3156 261.781 58.9019V78.8629C261.781 80.4201 261.262 81.5762 260.224 82.3312C259.233 83.0391 257.699 83.393 255.623 83.393V59.539C255.623 57.2739 254.986 55.4807 253.712 54.1594C252.438 52.8381 250.503 52.1775 247.907 52.1775C246.161 52.1775 244.51 52.555 242.953 53.31C241.443 54.0179 240.216 55.0088 239.272 56.2829C238.375 57.5098 237.927 58.8547 237.927 60.3176V78.8629C237.927 80.4201 237.408 81.5762 236.37 82.3312C235.379 83.0391 233.845 83.393 231.769 83.393V37.8084Z" fill="#49BCCF"/>
<path d="M270.962 37.3837C270.962 34.1749 273.039 32.5705 277.191 32.5705V49.8416C276.483 50.4551 275.988 50.9742 275.705 51.3989L275.917 51.7528C277.333 50.2427 279.055 49.0394 281.084 48.1428C283.161 47.1991 285.19 46.7272 287.172 46.7272C291.372 46.7272 294.722 47.8361 297.223 50.054C299.724 52.2719 300.975 55.2448 300.975 58.9727V71.0767C300.975 73.4361 300.385 75.5596 299.205 77.4472C298.072 79.3347 296.468 80.7976 294.392 81.8358C292.315 82.8739 289.956 83.393 287.313 83.393C282.689 83.393 278.796 81.3639 275.634 77.3056L275.422 77.5887C275.705 78.0134 276.177 78.6033 276.837 79.3583C276.837 80.7268 276.365 81.7414 275.422 82.402C274.478 83.0627 272.991 83.393 270.962 83.393V37.3837ZM285.968 77.9427C288.847 77.9427 291.041 77.3292 292.551 76.1023C294.109 74.8754 294.887 73.1058 294.887 70.7935V59.2558C294.887 57.038 294.109 55.3156 292.551 54.0886C290.994 52.8145 288.823 52.1775 286.039 52.1775C283.585 52.1775 281.485 52.8381 279.739 54.1594C277.993 55.4807 277.12 57.0615 277.12 58.9019V71.1474C277.12 73.0822 277.97 74.7102 279.669 76.0315C281.368 77.3056 283.467 77.9427 285.968 77.9427Z" fill="#49BCCF"/>
<path d="M322.568 83.393C319.689 83.393 317.07 82.8503 314.711 81.765C312.399 80.6796 310.582 79.2168 309.261 77.3764C307.987 75.4888 307.349 73.3889 307.349 71.0767V59.4682C307.349 57.1087 307.987 54.9616 309.261 53.0269C310.582 51.0921 312.399 49.5585 314.711 48.426C317.023 47.2934 319.642 46.7272 322.568 46.7272C325.494 46.7272 328.113 47.2934 330.425 48.426C332.784 49.5585 334.601 51.0921 335.875 53.0269C337.196 54.9616 337.857 57.1087 337.857 59.4682V71.0767C337.857 73.3889 337.196 75.4888 335.875 77.3764C334.554 79.2168 332.737 80.6796 330.425 81.765C328.113 82.8503 325.494 83.393 322.568 83.393ZM322.568 78.0842C325.399 78.0842 327.641 77.4236 329.292 76.1023C330.991 74.7338 331.841 72.9642 331.841 70.7935V59.6805C331.841 57.4155 330.991 55.5751 329.292 54.1594C327.641 52.7438 325.399 52.0359 322.568 52.0359C319.784 52.0359 317.542 52.7438 315.843 54.1594C314.145 55.5751 313.295 57.4155 313.295 59.6805V70.7935C313.295 72.9642 314.121 74.7338 315.773 76.1023C317.471 77.4236 319.737 78.0842 322.568 78.0842Z" fill="#49BCCF"/>
<path d="M355.984 83.393C351.926 83.393 348.646 82.3076 346.145 80.137C343.692 77.9663 342.465 75.1113 342.465 71.5722C342.465 67.9858 343.762 65.1073 346.358 62.9366C348.953 60.7187 352.374 59.6097 356.621 59.6097C361.152 59.6097 364.879 61.2142 367.805 64.423L368.088 64.1399C367.569 63.5736 366.979 62.9838 366.319 62.3703V59.3974C366.319 56.9908 365.564 55.1268 364.054 53.8055C362.544 52.4842 360.396 51.8236 357.612 51.8236C352.658 51.8236 349.118 53.7819 346.995 57.6986C346.24 57.3211 345.603 56.8256 345.084 56.2121C344.612 55.5515 344.376 54.8909 344.376 54.2302C344.376 52.9561 345.013 51.7528 346.287 50.6203C347.561 49.4405 349.236 48.4967 351.313 47.7889C353.436 47.0811 355.654 46.7272 357.966 46.7272C362.449 46.7272 365.965 47.8361 368.513 50.054C371.108 52.2719 372.406 55.3391 372.406 59.2558V78.6505C372.406 80.3021 371.934 81.5054 370.99 82.2605C370.047 83.0155 368.56 83.393 366.531 83.393V80.0662C367.522 79.028 368.065 78.4146 368.159 78.2258L367.876 77.9427C364.809 81.5762 360.845 83.393 355.984 83.393ZM357.046 78.5089C359.972 78.5089 362.26 77.8955 363.912 76.6686C365.611 75.4416 366.46 73.7428 366.46 71.5722C366.46 69.4015 365.634 67.6791 363.983 66.405C362.331 65.1309 360.066 64.4938 357.188 64.4938C354.498 64.4938 352.374 65.1309 350.817 66.405C349.307 67.6319 348.552 69.3543 348.552 71.5722C348.552 73.79 349.283 75.5124 350.746 76.7393C352.256 77.9191 354.356 78.5089 357.046 78.5089Z" fill="#49BCCF"/>
<path d="M397.336 52.1775C394.694 52.1775 392.499 52.9797 390.753 54.5841C389.007 56.1414 388.134 58.0525 388.134 60.3176V78.8629C388.134 80.4201 387.615 81.5762 386.577 82.3312C385.586 83.0391 384.053 83.393 381.976 83.393V51.9651C381.976 48.4732 383.958 46.7272 387.922 46.7272V51.045C387.167 51.8472 386.648 52.555 386.365 53.1685L386.648 53.4516C389.668 48.9686 393.443 46.7272 397.973 46.7272C399.672 46.7272 400.97 47.1519 401.866 48.0013C402.763 48.8035 403.211 49.7944 403.211 50.9742C403.211 51.8236 402.999 52.5786 402.574 53.2392C401.253 52.5314 399.507 52.1775 397.336 52.1775Z" fill="#49BCCF"/>
<path d="M420.437 83.393C416.378 83.393 413.075 82.284 410.527 80.0662C408.026 77.8011 406.775 74.8046 406.775 71.0767V58.9727C406.775 56.5661 407.365 54.4426 408.545 52.6022C409.725 50.7146 411.353 49.2754 413.429 48.2844C415.552 47.2462 417.983 46.7272 420.72 46.7272C422.938 46.7272 424.99 47.1991 426.878 48.1428C428.765 49.0394 430.417 50.2427 431.833 51.7528L432.045 51.3989C431.715 50.927 431.219 50.4079 430.559 49.8416V37.3837C430.559 35.8265 431.078 34.6468 432.116 33.8446C433.154 32.9952 434.711 32.5705 436.788 32.5705V78.3674C436.788 79.9246 436.316 81.1515 435.372 82.0481C434.475 82.9447 433.012 83.393 430.983 83.393V79.4291C431.644 78.5797 432.092 77.9663 432.328 77.5887L432.116 77.3056C430.606 79.1932 428.931 80.6796 427.09 81.765C425.25 82.8503 423.032 83.393 420.437 83.393ZM421.781 77.9427C424.282 77.9427 426.382 77.3056 428.081 76.0315C429.78 74.7102 430.629 73.0822 430.629 71.1474V58.9019C430.629 57.0144 429.827 55.4335 428.223 54.1594C426.618 52.8381 424.448 52.1775 421.711 52.1775C418.926 52.1775 416.756 52.8145 415.199 54.0886C413.688 55.3156 412.933 57.038 412.933 59.2558V70.7935C412.933 73.1058 413.688 74.8754 415.199 76.1023C416.756 77.3292 418.95 77.9427 421.781 77.9427Z" fill="#49BCCF"/>
<path d="M479.118 77.3298V82.7561H453.957V77.3298H479.118ZM455.27 32.4335V82.7561H448.6V32.4335H455.27Z" fill="white"/>
<path d="M491.664 78.8851L502.067 45.3597H508.911L493.911 88.528C493.565 89.4496 493.104 90.4404 492.528 91.5003C491.975 92.5833 491.261 93.6086 490.385 94.5764C489.51 95.5441 488.45 96.3275 487.206 96.9266C485.984 97.5487 484.521 97.8598 482.816 97.8598C482.309 97.8598 481.664 97.7907 480.881 97.6524C480.097 97.5142 479.544 97.3989 479.222 97.3068L479.187 92.1224C479.372 92.1455 479.66 92.1685 480.051 92.1916C480.466 92.2377 480.754 92.2607 480.915 92.2607C482.367 92.2607 483.6 92.0648 484.613 91.6731C485.627 91.3045 486.48 90.6708 487.171 89.7722C487.885 88.8966 488.496 87.687 489.003 86.1432L491.664 78.8851ZM484.026 45.3597L493.738 74.392L495.397 81.1317L490.8 83.4819L477.044 45.3597H484.026Z" fill="white"/>
<path d="M521.077 53.3436V82.7561H514.683V45.3597H520.731L521.077 53.3436ZM519.556 62.6409L516.895 62.5372C516.918 59.9796 517.298 57.6178 518.035 55.4519C518.772 53.263 519.809 51.3621 521.146 49.7491C522.482 48.1362 524.072 46.892 525.915 46.0164C527.782 45.1178 529.844 44.6685 532.102 44.6685C533.945 44.6685 535.604 44.922 537.079 45.4289C538.554 45.9127 539.809 46.6961 540.846 47.7791C541.906 48.862 542.713 50.2676 543.266 51.9957C543.819 53.7008 544.095 55.786 544.095 58.2515V82.7561H537.666V58.1823C537.666 56.2238 537.378 54.657 536.802 53.4819C536.226 52.2837 535.385 51.4197 534.279 50.8897C533.173 50.3367 531.814 50.0602 530.201 50.0602C528.611 50.0602 527.16 50.3943 525.846 51.0625C524.556 51.7307 523.438 52.6524 522.494 53.8275C521.572 55.0026 520.846 56.3505 520.316 57.8713C519.809 59.369 519.556 60.9588 519.556 62.6409Z" fill="white"/>
<path d="M560.236 29.6685V82.7561H553.807V29.6685H560.236ZM583.081 45.3597L566.768 62.8137L557.643 72.2837L557.125 65.475L563.657 57.6639L575.27 45.3597H583.081ZM577.24 82.7561L563.899 64.922L567.217 59.2192L584.775 82.7561H577.24Z" fill="white"/>
<path d="M627.839 57.6985V76.1201C627.217 77.0418 626.226 78.0787 624.867 79.2307C623.508 80.3598 621.63 81.3505 619.233 82.2031C616.86 83.0326 613.796 83.4473 610.04 83.4473C606.975 83.4473 604.153 82.9174 601.572 81.8575C599.014 80.7745 596.791 79.2077 594.902 77.157C593.035 75.0833 591.584 72.5717 590.547 69.6224C589.533 66.6501 589.026 63.286 589.026 59.5303V55.6247C589.026 51.869 589.464 48.5164 590.339 45.5671C591.238 42.6178 592.551 40.1178 594.279 38.0671C596.008 35.9934 598.127 34.4266 600.639 33.3666C603.15 32.2837 606.031 31.7422 609.279 31.7422C613.127 31.7422 616.342 32.4104 618.922 33.7468C621.526 35.0602 623.554 36.8805 625.005 39.2077C626.48 41.5349 627.425 44.1846 627.839 47.157H621.169C620.869 45.3367 620.27 43.6777 619.372 42.18C618.496 40.6823 617.24 39.4842 615.604 38.5855C613.968 37.6639 611.86 37.2031 609.279 37.2031C606.952 37.2031 604.936 37.6293 603.231 38.4819C601.526 39.3344 600.12 40.5556 599.014 42.1455C597.908 43.7353 597.079 45.6593 596.526 47.9173C595.996 50.1754 595.731 52.7215 595.731 55.5556V59.5303C595.731 62.4335 596.065 65.0257 596.733 67.3068C597.425 69.5879 598.404 71.5349 599.671 73.1478C600.938 74.7376 602.448 75.9473 604.199 76.7768C605.973 77.6063 607.932 78.0211 610.074 78.0211C612.448 78.0211 614.372 77.8252 615.846 77.4335C617.321 77.0188 618.473 76.5349 619.302 75.9819C620.132 75.4058 620.766 74.8644 621.203 74.3575V63.0902H609.556V57.6985H627.839Z" fill="white"/>
<path d="M677.644 56.0049V59.1846C677.644 62.9634 677.171 66.3505 676.226 69.3459C675.282 72.3413 673.922 74.8874 672.148 76.9842C670.374 79.081 668.243 80.6823 665.754 81.7883C663.289 82.8943 660.524 83.4473 657.459 83.4473C654.487 83.4473 651.756 82.8943 649.268 81.7883C646.803 80.6823 644.66 79.081 642.839 76.9842C641.042 74.8874 639.648 72.3413 638.657 69.3459C637.667 66.3505 637.171 62.9634 637.171 59.1846V56.0049C637.171 52.2261 637.655 48.8505 638.623 45.8782C639.614 42.8828 641.008 40.3367 642.805 38.2399C644.602 36.1201 646.733 34.5072 649.199 33.4012C651.687 32.2952 654.418 31.7422 657.39 31.7422C660.455 31.7422 663.22 32.2952 665.685 33.4012C668.173 34.5072 670.305 36.1201 672.079 38.2399C673.876 40.3367 675.247 42.8828 676.192 45.8782C677.16 48.8505 677.644 52.2261 677.644 56.0049ZM671.042 59.1846V55.9358C671.042 52.9404 670.731 50.2906 670.109 47.9865C669.51 45.6823 668.623 43.7468 667.448 42.18C666.273 40.6132 664.832 39.4266 663.127 38.6201C661.445 37.8137 659.533 37.4104 657.39 37.4104C655.316 37.4104 653.438 37.8137 651.756 38.6201C650.097 39.4266 648.669 40.6132 647.471 42.18C646.296 43.7468 645.385 45.6823 644.74 47.9865C644.095 50.2906 643.773 52.9404 643.773 55.9358V59.1846C643.773 62.2031 644.095 64.8759 644.74 67.2031C645.385 69.5072 646.307 71.4542 647.505 73.0441C648.726 74.6109 650.167 75.7976 651.826 76.604C653.508 77.4105 655.385 77.8137 657.459 77.8137C659.625 77.8137 661.549 77.4105 663.231 76.604C664.913 75.7976 666.33 74.6109 667.482 73.0441C668.657 71.4542 669.544 69.5072 670.144 67.2031C670.743 64.8759 671.042 62.2031 671.042 59.1846Z" fill="white"/>
<path d="M677.168 89.3919C677.168 96.7557 683.137 102.725 690.501 102.725C697.865 102.725 703.834 96.7557 703.834 89.3919C703.834 82.0281 697.865 76.0586 690.501 76.0586C683.137 76.0586 677.168 82.0281 677.168 89.3919ZM500.271 91.8919H690.501V86.8919H500.271V91.8919Z" fill="url(#paint0_linear_119_267)"/>
</g>
<defs>
<filter id="filter0_d_119_267" x="0" y="0.912476" width="712.834" height="114.175" filterUnits="userSpaceOnUse" color-interpolation-filters="sRGB">
<feFlood flood-opacity="0" result="BackgroundImageFix"/>
<feColorMatrix in="SourceAlpha" type="matrix" values="0 0 0 0 0 0 0 0 0 0 0 0 0 0 0 0 0 0 127 0" result="hardAlpha"/>
<feOffset dx="5" dy="4"/>
<feGaussianBlur stdDeviation="2"/>
<feComposite in2="hardAlpha" operator="out"/>
<feColorMatrix type="matrix" values="0 0 0 0 0 0 0 0 0 0 0 0 0 0 0 0 0 0 0.7 0"/>
<feBlend mode="normal" in2="BackgroundImageFix" result="effect1_dropShadow_119_267"/>
<feBlend mode="normal" in="SourceGraphic" in2="effect1_dropShadow_119_267" result="shape"/>
</filter>
<linearGradient id="paint0_linear_119_267" x1="500.271" y1="89.3919" x2="657.321" y2="89.3919" gradientUnits="userSpaceOnUse">
<stop stop-color="#FF6C00" stop-opacity="0"/>
<stop offset="1" stop-color="#FF6C00"/>
</linearGradient>
</defs>
</svg>
