<svg width="317" height="48" viewBox="0 0 317 48" fill="none" xmlns="http://www.w3.org/2000/svg">
<g filter="url(#filter0_d_119_276)">
<path d="M38 6H10C7.8 6 6 7.8 6 10V38C6 40.2 7.8 42 10 42H38C40.2 42 42 40.2 42 38V10C42 7.8 40.2 6 38 6ZM18 34H14V24H18V34ZM26 34H22V28H26V34ZM26 24H22V20H26V24ZM34 34H30V14H34V34Z" fill="#111B20"/>
</g>
<g filter="url(#filter1_d_119_276)">
<path d="M51.4884 37.0402C51.0633 37.0402 50.702 36.9127 50.4044 36.6576C50.1068 36.3813 49.958 36.0412 49.958 35.6373V16.1248C49.958 15.7209 50.0962 15.3915 50.3725 15.1364C50.6701 14.8601 51.042 14.7219 51.4884 14.7219H58.9491C60.7558 14.7219 62.35 15.062 63.7316 15.7422C65.1132 16.4224 66.1866 17.3789 66.9518 18.6117C67.7383 19.8232 68.1315 21.2155 68.1315 22.7884V28.91C68.1315 30.4829 67.7383 31.8857 66.9518 33.1186C66.1866 34.3514 65.1026 35.3185 63.6997 36.02C62.3181 36.7001 60.7346 37.0402 58.9491 37.0402H51.4884ZM58.6303 34.4258C60.6708 34.4258 62.265 33.9475 63.4128 32.991C64.5606 32.0133 65.1344 30.6636 65.1344 28.9419V22.7565C65.1344 21.0561 64.5606 19.7276 63.4128 18.7711C62.265 17.8146 60.6708 17.3363 58.6303 17.3363H52.955V34.4258H58.6303Z" fill="#111B20"/>
<path d="M76.7656 37.3272C74.9376 37.3272 73.4604 36.8383 72.3338 35.8605C71.2286 34.8828 70.6759 33.5968 70.6759 32.0027C70.6759 30.3872 71.2604 29.0907 72.4295 28.1129C73.5985 27.1139 75.1396 26.6144 77.0526 26.6144C79.0931 26.6144 80.7723 27.3371 82.0901 28.7824L82.2177 28.6549C81.9839 28.3998 81.7182 28.1342 81.4206 27.8578V26.5187C81.4206 25.4347 81.0805 24.5951 80.4003 24C79.7201 23.4048 78.753 23.1072 77.4989 23.1072C75.2671 23.1072 73.6729 23.9893 72.7164 25.7535C72.3764 25.5835 72.0894 25.3603 71.8556 25.084C71.643 24.7864 71.5368 24.4888 71.5368 24.1913C71.5368 23.6174 71.8237 23.0753 72.3976 22.5652C72.9715 22.0338 73.7261 21.6087 74.6613 21.2899C75.6178 20.971 76.6168 20.8116 77.6584 20.8116C79.6776 20.8116 81.2612 21.3111 82.409 22.3101C83.578 23.3091 84.1625 24.6908 84.1625 26.455V35.191C84.1625 35.9349 83.95 36.4769 83.5249 36.817C83.0998 37.1571 82.4302 37.3272 81.5162 37.3272V35.8286C81.9626 35.361 82.207 35.0847 82.2495 34.9997L82.122 34.8722C80.7404 36.5088 78.9549 37.3272 76.7656 37.3272ZM77.2439 35.1272C78.5617 35.1272 79.5926 34.8509 80.3365 34.2983C81.1017 33.7456 81.4843 32.9804 81.4843 32.0027C81.4843 31.0249 81.1124 30.2491 80.3684 29.6752C79.6245 29.1013 78.6042 28.8143 77.3076 28.8143C76.0961 28.8143 75.1396 29.1013 74.4381 29.6752C73.758 30.2278 73.4179 31.0036 73.4179 32.0027C73.4179 33.0017 73.7473 33.7775 74.4063 34.3301C75.0864 34.8615 76.0323 35.1272 77.2439 35.1272Z" fill="#111B20"/>
<path d="M93.7771 37.3272C92.6931 37.3272 91.6728 37.1677 90.7163 36.8489C89.7598 36.5088 88.984 36.0306 88.3888 35.4142C87.8149 34.7978 87.528 34.0751 87.528 33.2461C87.528 32.2258 88.1444 31.6732 89.3772 31.5882C89.5898 32.7785 90.0893 33.6606 90.8757 34.2345C91.6834 34.7871 92.7037 35.0634 93.9365 35.0634C95.1693 35.0634 96.1258 34.8828 96.806 34.5214C97.4862 34.1601 97.8263 33.6074 97.8263 32.8635C97.8263 32.3321 97.6881 31.907 97.4118 31.5882C97.1355 31.2481 96.6891 30.9611 96.0727 30.7273C95.4775 30.4723 94.6167 30.2278 93.4901 29.994C92.0873 29.6752 90.9714 29.3351 90.1424 28.9737C89.3134 28.6124 88.6758 28.1342 88.2294 27.539C87.8043 26.9438 87.5917 26.1574 87.5917 25.1796C87.5917 24.3507 87.8468 23.6067 88.3569 22.9478C88.8671 22.2676 89.5685 21.7469 90.4612 21.3855C91.3752 21.0029 92.4061 20.8116 93.5539 20.8116C94.6167 20.8116 95.6157 20.9604 96.5509 21.258C97.5074 21.5556 98.2726 21.9807 98.8465 22.5333C99.4417 23.086 99.7393 23.7236 99.7393 24.4463C99.7393 24.9352 99.548 25.3284 99.1654 25.626C98.7828 25.9023 98.2514 26.0617 97.5712 26.1042C97.5074 25.169 97.1248 24.4357 96.4234 23.9043C95.7432 23.3517 94.7867 23.0753 93.5539 23.0753C92.5336 23.0753 91.7259 23.2666 91.1308 23.6492C90.5356 24.0318 90.238 24.542 90.238 25.1796C90.238 25.8598 90.5144 26.3699 91.067 26.71C91.6409 27.0289 92.608 27.3371 93.9684 27.6346C96.2002 28.081 97.8369 28.6974 98.8784 29.4839C99.9412 30.2491 100.473 31.3437 100.473 32.7679C100.473 34.2132 99.8881 35.3398 98.719 36.1475C97.5499 36.9339 95.9026 37.3272 93.7771 37.3272Z" fill="#111B20"/>
<path d="M104.135 16.7943C104.135 16.0291 104.368 15.4446 104.836 15.0407C105.304 14.6369 105.995 14.435 106.909 14.435V22.8203C106.611 23.1604 106.377 23.4579 106.207 23.713L106.335 23.8405C106.994 22.9478 107.823 22.2251 108.822 21.6725C109.821 21.0986 110.905 20.8116 112.074 20.8116C113.795 20.8116 115.156 21.3218 116.155 22.342C117.154 23.3623 117.653 24.6801 117.653 26.2955V35.2866C117.653 35.9881 117.419 36.5088 116.952 36.8489C116.505 37.1677 115.815 37.3272 114.879 37.3272V26.5825C114.879 25.5622 114.592 24.7545 114.019 24.1594C113.445 23.5642 112.573 23.2666 111.404 23.2666C110.618 23.2666 109.874 23.4367 109.172 23.7768C108.492 24.0956 107.939 24.542 107.514 25.1159C107.11 25.6685 106.909 26.2743 106.909 26.9332V35.2866C106.909 35.9881 106.675 36.5088 106.207 36.8489C105.761 37.1677 105.07 37.3272 104.135 37.3272V16.7943Z" fill="#111B20"/>
<path d="M121.789 16.603C121.789 15.1577 122.724 14.435 124.595 14.435V22.2145C124.276 22.4908 124.053 22.7246 123.925 22.9159L124.021 23.0753C124.658 22.3952 125.434 21.8531 126.348 21.4493C127.283 21.0242 128.197 20.8116 129.09 20.8116C130.982 20.8116 132.491 21.3111 133.618 22.3101C134.744 23.3091 135.307 24.6482 135.307 26.3274V31.7795C135.307 32.8422 135.042 33.7987 134.51 34.649C134 35.4992 133.277 36.1581 132.342 36.6257C131.407 37.0934 130.344 37.3272 129.154 37.3272C127.071 37.3272 125.317 36.4132 123.893 34.5852L123.797 34.7127C123.925 34.904 124.138 35.1697 124.435 35.5098C124.435 36.1262 124.223 36.5832 123.797 36.8808C123.372 37.1784 122.703 37.3272 121.789 37.3272V16.603ZM128.548 34.8722C129.845 34.8722 130.833 34.5958 131.513 34.0432C132.215 33.4905 132.565 32.6935 132.565 31.6519V26.455C132.565 25.456 132.215 24.6801 131.513 24.1275C130.812 23.5536 129.834 23.2666 128.58 23.2666C127.475 23.2666 126.529 23.5642 125.742 24.1594C124.956 24.7545 124.563 25.4666 124.563 26.2955V31.8114C124.563 32.6828 124.945 33.4161 125.71 34.0113C126.476 34.5852 127.422 34.8722 128.548 34.8722Z" fill="#111B20"/>
<path d="M145.034 37.3272C143.737 37.3272 142.557 37.0827 141.495 36.5938C140.453 36.105 139.635 35.4461 139.04 34.6171C138.466 33.7669 138.179 32.821 138.179 31.7795V26.5506C138.179 25.4878 138.466 24.5207 139.04 23.6492C139.635 22.7778 140.453 22.087 141.495 21.5768C142.536 21.0667 143.716 20.8116 145.034 20.8116C146.352 20.8116 147.531 21.0667 148.573 21.5768C149.636 22.087 150.454 22.7778 151.028 23.6492C151.623 24.5207 151.921 25.4878 151.921 26.5506V31.7795C151.921 32.821 151.623 33.7669 151.028 34.6171C150.433 35.4461 149.614 36.105 148.573 36.5938C147.531 37.0827 146.352 37.3272 145.034 37.3272ZM145.034 34.9359C146.309 34.9359 147.319 34.6383 148.063 34.0432C148.828 33.4268 149.21 32.6297 149.21 31.6519V26.6463C149.21 25.626 148.828 24.797 148.063 24.1594C147.319 23.5217 146.309 23.2029 145.034 23.2029C143.78 23.2029 142.77 23.5217 142.005 24.1594C141.24 24.797 140.857 25.626 140.857 26.6463V31.6519C140.857 32.6297 141.229 33.4268 141.973 34.0432C142.738 34.6383 143.758 34.9359 145.034 34.9359Z" fill="#111B20"/>
<path d="M160.086 37.3272C158.258 37.3272 156.78 36.8383 155.654 35.8605C154.549 34.8828 153.996 33.5968 153.996 32.0027C153.996 30.3872 154.58 29.0907 155.749 28.1129C156.919 27.1139 158.46 26.6144 160.373 26.6144C162.413 26.6144 164.092 27.3371 165.41 28.7824L165.538 28.6549C165.304 28.3998 165.038 28.1342 164.741 27.8578V26.5187C164.741 25.4347 164.4 24.5951 163.72 24C163.04 23.4048 162.073 23.1072 160.819 23.1072C158.587 23.1072 156.993 23.9893 156.036 25.7535C155.696 25.5835 155.409 25.3603 155.176 25.084C154.963 24.7864 154.857 24.4888 154.857 24.1913C154.857 23.6174 155.144 23.0753 155.718 22.5652C156.291 22.0338 157.046 21.6087 157.981 21.2899C158.938 20.971 159.937 20.8116 160.978 20.8116C162.998 20.8116 164.581 21.3111 165.729 22.3101C166.898 23.3091 167.483 24.6908 167.483 26.455V35.191C167.483 35.9349 167.27 36.4769 166.845 36.817C166.42 37.1571 165.75 37.3272 164.836 37.3272V35.8286C165.283 35.361 165.527 35.0847 165.57 34.9997L165.442 34.8722C164.06 36.5088 162.275 37.3272 160.086 37.3272ZM160.564 35.1272C161.882 35.1272 162.913 34.8509 163.657 34.2983C164.422 33.7456 164.804 32.9804 164.804 32.0027C164.804 31.0249 164.432 30.2491 163.688 29.6752C162.944 29.1013 161.924 28.8143 160.628 28.8143C159.416 28.8143 158.46 29.1013 157.758 29.6752C157.078 30.2278 156.738 31.0036 156.738 32.0027C156.738 33.0017 157.067 33.7775 157.726 34.3301C158.406 34.8615 159.352 35.1272 160.564 35.1272Z" fill="#111B20"/>
<path d="M178.712 23.2666C177.522 23.2666 176.533 23.628 175.747 24.3507C174.96 25.0521 174.567 25.9129 174.567 26.9332V35.2866C174.567 35.9881 174.333 36.5088 173.866 36.8489C173.419 37.1677 172.728 37.3272 171.793 37.3272V23.171C171.793 21.5981 172.686 20.8116 174.471 20.8116V22.7565C174.131 23.1178 173.898 23.4367 173.77 23.713L173.898 23.8405C175.258 21.8213 176.958 20.8116 178.999 20.8116C179.764 20.8116 180.349 21.0029 180.752 21.3855C181.156 21.7469 181.358 22.1932 181.358 22.7246C181.358 23.1072 181.263 23.4473 181.071 23.7449C180.476 23.4261 179.69 23.2666 178.712 23.2666Z" fill="#111B20"/>
<path d="M189.117 37.3272C187.289 37.3272 185.801 36.8277 184.653 35.8286C183.527 34.8084 182.964 33.4587 182.964 31.7795V26.3274C182.964 25.2434 183.229 24.2869 183.761 23.4579C184.292 22.6077 185.025 21.9594 185.961 21.5131C186.917 21.0454 188.012 20.8116 189.245 20.8116C190.244 20.8116 191.168 21.0242 192.018 21.4493C192.869 21.8531 193.613 22.3952 194.25 23.0753L194.346 22.9159C194.197 22.7034 193.974 22.4696 193.676 22.2145V16.603C193.676 15.9016 193.91 15.3702 194.378 15.0089C194.845 14.6263 195.547 14.435 196.482 14.435V35.0634C196.482 35.7649 196.27 36.3175 195.844 36.7214C195.441 37.1252 194.782 37.3272 193.868 37.3272V35.5417C194.165 35.1591 194.367 34.8828 194.473 34.7127L194.378 34.5852C193.698 35.4354 192.943 36.105 192.114 36.5938C191.285 37.0827 190.286 37.3272 189.117 37.3272ZM189.723 34.8722C190.849 34.8722 191.795 34.5852 192.56 34.0113C193.326 33.4161 193.708 32.6828 193.708 31.8114V26.2955C193.708 25.4453 193.347 24.7333 192.624 24.1594C191.902 23.5642 190.924 23.2666 189.691 23.2666C188.437 23.2666 187.459 23.5536 186.758 24.1275C186.078 24.6801 185.737 25.456 185.737 26.455V31.6519C185.737 32.6935 186.078 33.4905 186.758 34.0432C187.459 34.5958 188.448 34.8722 189.723 34.8722Z" fill="#111B20"/>
</g>
<path d="M215.549 34.5961V37.0403H204.215V34.5961H215.549ZM204.807 14.3732V37.0403H201.802V14.3732H204.807Z" fill="white"/>
<path d="M221.2 35.2967L225.886 20.1957H228.968L222.212 39.6401C222.056 40.0553 221.849 40.5016 221.589 40.979C221.34 41.4668 221.018 41.9286 220.624 42.3645C220.23 42.8004 219.752 43.1533 219.192 43.4232C218.642 43.7034 217.983 43.8435 217.215 43.8435C216.986 43.8435 216.696 43.8124 216.343 43.7501C215.99 43.6878 215.741 43.6359 215.596 43.5944L215.58 41.2592C215.663 41.2696 215.793 41.28 215.969 41.2903C216.156 41.3111 216.286 41.3215 216.358 41.3215C217.012 41.3215 217.567 41.2333 218.024 41.0568C218.481 40.8908 218.865 40.6053 219.176 40.2006C219.498 39.8062 219.773 39.2613 220.001 38.5659L221.2 35.2967ZM217.759 20.1957L222.134 33.2728L222.881 36.3086L220.811 37.3672L214.615 20.1957H217.759Z" fill="white"/>
<path d="M234.448 23.7919V37.0403H231.568V20.1957H234.293L234.448 23.7919ZM233.763 27.9797L232.565 27.933C232.575 26.781 232.746 25.7171 233.078 24.7415C233.41 23.7556 233.878 22.8993 234.479 22.1728C235.081 21.4463 235.798 20.8859 236.628 20.4915C237.469 20.0867 238.397 19.8843 239.415 19.8843C240.245 19.8843 240.992 19.9985 241.656 20.2268C242.321 20.4448 242.886 20.7976 243.353 21.2854C243.831 21.7732 244.194 22.4063 244.443 23.1847C244.692 23.9528 244.817 24.892 244.817 26.0026V37.0403H241.921V25.9714C241.921 25.0892 241.791 24.3835 241.532 23.8542C241.272 23.3145 240.894 22.9253 240.395 22.6866C239.897 22.4375 239.285 22.3129 238.558 22.3129C237.842 22.3129 237.188 22.4634 236.597 22.7644C236.016 23.0654 235.512 23.4805 235.087 24.0098C234.672 24.5392 234.345 25.1463 234.106 25.8313C233.878 26.5059 233.763 27.222 233.763 27.9797Z" fill="white"/>
<path d="M252.087 13.1278V37.0403H249.191V13.1278H252.087ZM262.377 20.1957L255.029 28.0575L250.919 32.3232L250.686 29.2563L253.628 25.7379L258.859 20.1957H262.377ZM259.746 37.0403L253.737 29.0072L255.232 26.4385L263.14 37.0403H259.746Z" fill="white"/>
<path d="M282.538 25.7535V34.0512C282.258 34.4664 281.811 34.9334 281.199 35.4523C280.587 35.9609 279.741 36.4072 278.662 36.7912C277.593 37.1648 276.212 37.3516 274.52 37.3516C273.14 37.3516 271.869 37.1129 270.706 36.6355C269.554 36.1477 268.553 35.442 267.702 34.5183C266.861 33.5842 266.207 32.4529 265.74 31.1244C265.283 29.7856 265.055 28.2703 265.055 26.5786V24.8194C265.055 23.1277 265.252 21.6176 265.647 20.2891C266.051 18.9606 266.643 17.8345 267.421 16.9108C268.2 15.9768 269.155 15.271 270.286 14.7936C271.417 14.3058 272.715 14.0619 274.178 14.0619C275.911 14.0619 277.359 14.3629 278.521 14.9648C279.694 15.5564 280.608 16.3763 281.261 17.4246C281.926 18.4728 282.351 19.6664 282.538 21.0052H279.533C279.398 20.1853 279.129 19.438 278.724 18.7634C278.329 18.0888 277.764 17.5491 277.027 17.1444C276.29 16.7292 275.34 16.5216 274.178 16.5216C273.13 16.5216 272.222 16.7136 271.454 17.0977C270.686 17.4817 270.052 18.0317 269.554 18.7479C269.056 19.464 268.682 20.3306 268.433 21.3477C268.195 22.3648 268.075 23.5117 268.075 24.7882V26.5786C268.075 27.8863 268.226 29.0539 268.527 30.0814C268.838 31.1089 269.279 31.9859 269.85 32.7124C270.421 33.4285 271.101 33.9734 271.889 34.347C272.689 34.7206 273.571 34.9075 274.536 34.9075C275.605 34.9075 276.472 34.8192 277.136 34.6428C277.8 34.456 278.319 34.238 278.693 33.9889C279.066 33.7295 279.352 33.4856 279.549 33.2572V28.1821H274.302V25.7535H282.538Z" fill="white"/>
<path d="M304.971 24.9906V26.4229C304.971 28.125 304.759 29.6507 304.333 30.9999C303.908 32.3491 303.295 33.496 302.496 34.4404C301.697 35.3849 300.737 36.1062 299.616 36.6044C298.506 37.1025 297.26 37.3516 295.88 37.3516C294.541 37.3516 293.311 37.1025 292.19 36.6044C291.08 36.1062 290.114 35.3849 289.294 34.4404C288.485 33.496 287.857 32.3491 287.411 30.9999C286.964 29.6507 286.741 28.125 286.741 26.4229V24.9906C286.741 23.2885 286.959 21.7681 287.395 20.4292C287.841 19.08 288.469 17.9331 289.279 16.9887C290.088 16.0338 291.048 15.3073 292.159 14.8092C293.28 14.311 294.51 14.0619 295.849 14.0619C297.229 14.0619 298.474 14.311 299.585 14.8092C300.706 15.3073 301.666 16.0338 302.465 16.9887C303.275 17.9331 303.892 19.08 304.318 20.4292C304.753 21.7681 304.971 23.2885 304.971 24.9906ZM301.998 26.4229V24.9595C301.998 23.6103 301.858 22.4167 301.578 21.3789C301.308 20.341 300.908 19.4692 300.379 18.7634C299.85 18.0577 299.201 17.5232 298.433 17.1599C297.675 16.7967 296.814 16.615 295.849 16.615C294.915 16.615 294.069 16.7967 293.311 17.1599C292.564 17.5232 291.92 18.0577 291.381 18.7634C290.851 19.4692 290.441 20.341 290.151 21.3789C289.86 22.4167 289.715 23.6103 289.715 24.9595V26.4229C289.715 27.7825 289.86 28.9864 290.151 30.0347C290.441 31.0725 290.856 31.9495 291.396 32.6657C291.946 33.3714 292.595 33.9059 293.342 34.2692C294.1 34.6324 294.946 34.814 295.88 34.814C296.855 34.814 297.722 34.6324 298.48 34.2692C299.237 33.9059 299.876 33.3714 300.394 32.6657C300.924 31.9495 301.323 31.0725 301.593 30.0347C301.863 28.9864 301.998 27.7825 301.998 26.4229Z" fill="white"/>
<path d="M305.43 40.0292C305.43 42.9748 307.817 45.3626 310.763 45.3626C313.708 45.3626 316.096 42.9748 316.096 40.0292C316.096 37.0837 313.708 34.6959 310.763 34.6959C307.817 34.6959 305.43 37.0837 305.43 40.0292ZM225.077 41.0292H310.763V39.0292H225.077V41.0292Z" fill="url(#paint0_linear_119_276)"/>
<defs>
<filter id="filter0_d_119_276" x="4" y="4" width="40" height="40" filterUnits="userSpaceOnUse" color-interpolation-filters="sRGB">
<feFlood flood-opacity="0" result="BackgroundImageFix"/>
<feColorMatrix in="SourceAlpha" type="matrix" values="0 0 0 0 0 0 0 0 0 0 0 0 0 0 0 0 0 0 127 0" result="hardAlpha"/>
<feOffset/>
<feGaussianBlur stdDeviation="1"/>
<feComposite in2="hardAlpha" operator="out"/>
<feColorMatrix type="matrix" values="0 0 0 0 1 0 0 0 0 0.423529 0 0 0 0 0 0 0 0 0.88 0"/>
<feBlend mode="normal" in2="BackgroundImageFix" result="effect1_dropShadow_119_276"/>
<feBlend mode="normal" in="SourceGraphic" in2="effect1_dropShadow_119_276" result="shape"/>
</filter>
<filter id="filter1_d_119_276" x="47.958" y="12.435" width="150.524" height="26.8922" filterUnits="userSpaceOnUse" color-interpolation-filters="sRGB">
<feFlood flood-opacity="0" result="BackgroundImageFix"/>
<feColorMatrix in="SourceAlpha" type="matrix" values="0 0 0 0 0 0 0 0 0 0 0 0 0 0 0 0 0 0 127 0" result="hardAlpha"/>
<feOffset/>
<feGaussianBlur stdDeviation="1"/>
<feComposite in2="hardAlpha" operator="out"/>
<feColorMatrix type="matrix" values="0 0 0 0 1 0 0 0 0 0.423529 0 0 0 0 0 0 0 0 0.88 0"/>
<feBlend mode="normal" in2="BackgroundImageFix" result="effect1_dropShadow_119_276"/>
<feBlend mode="normal" in="SourceGraphic" in2="effect1_dropShadow_119_276" result="shape"/>
</filter>
<linearGradient id="paint0_linear_119_276" x1="225.077" y1="40.0293" x2="295.818" y2="40.0293" gradientUnits="userSpaceOnUse">
<stop stop-color="#FF6C00" stop-opacity="0"/>
<stop offset="1" stop-color="#FF6C00"/>
</linearGradient>
</defs>
</svg>
