<svg width="362" height="31" viewBox="0 0 362 31" fill="none" xmlns="http://www.w3.org/2000/svg">
<path d="M57.541 10.2378L75.5946 30.5271H85.4021L67.3485 10.2378L57.541 10.2378Z" fill="#111B20" fill-opacity="0.56"/>
<path d="M38.2363 10.2378L56.2943 30.5271H66.0974L48.0438 10.2378L38.2363 10.2378Z" fill="#111B20" fill-opacity="0.56"/>
<path d="M19.3311 10.2378L37.3846 30.5271H47.1921L29.1386 10.2378L19.3311 10.2378Z" fill="#111B20" fill-opacity="0.56"/>
<path d="M189.82 17.2018L188.249 18.7764L186.266 20.7593L184.71 22.3118L180.744 22.3118L184.284 18.7764L185.858 17.2018L178.761 17.2018L177.182 18.7764L175.199 20.7593L173.647 22.3118H169.681L173.221 18.7764L174.796 17.1974H171.952V17.2151L90.2987 17.2417L80.1674 4.39127L80.2162 0.150648L110.579 0.163968L121.136 13.1165L170.577 13.1032V13.0898H174.654L173.221 11.6571L169.681 8.11737H173.647L177.182 11.6571L178.619 13.0898H185.721L184.284 11.6571L180.744 8.11737L184.71 8.11737L188.249 11.6571L189.686 13.0943L240.281 13.1032L250.838 0.146208L281.201 0.132996L281.25 4.3735L271.118 17.2239L189.82 17.2018Z" fill="#111B20" fill-opacity="0.56"/>
<path d="M180.673 23.4918L160.672 23.4962V20.1872L110.282 20.1872V23.514L91.5187 23.5184L70.4044 0L0 0.0310807L0 2.98082L69.0915 2.94974L71.2162 5.31848L0 5.29184L0 8.23725L73.8644 8.26378L90.2013 26.4682L110.282 26.4593V30.527L160.672 30.527V26.446L180.673 26.4371V23.4918Z" fill="#111B20" fill-opacity="0.56"/>
<path d="M137.478 6.9021L130.372 6.9021V10.4552L137.478 10.4552V6.9021Z" fill="#111B20" fill-opacity="0.56"/>
<path d="M147.498 6.9021L140.392 6.9021V10.4552L147.498 10.4552V6.9021Z" fill="#111B20" fill-opacity="0.56"/>
<path d="M157.514 6.9021L150.408 6.9021V10.4552L157.514 10.4552V6.9021Z" fill="#111B20" fill-opacity="0.56"/>
<path d="M294.069 10.2556L276.016 30.5403H285.823L303.877 10.2556L294.069 10.2556Z" fill="#111B20" fill-opacity="0.56"/>
<path d="M313.373 10.2556L295.32 30.5403H305.123L323.181 10.2556L313.373 10.2556Z" fill="#111B20" fill-opacity="0.56"/>
<path d="M314.225 30.5403H324.033L342.086 10.2556L332.283 10.2556L314.225 30.5403Z" fill="#111B20" fill-opacity="0.56"/>
<path d="M290.201 5.3318L292.326 2.9675L361.417 2.99414L361.422 0.0487336L291.013 0.0177612L269.899 23.5362L251.135 23.5318V20.2049L200.745 20.2049V23.514L180.744 23.5051V26.4549L200.745 26.4593V30.5402L251.135 30.5402V26.4771L271.216 26.4815L287.557 8.28154L361.422 8.2549L361.417 5.30516L290.201 5.3318Z" fill="#111B20" fill-opacity="0.56"/>
<path d="M231.046 6.91962L223.939 6.91962V10.4727L231.046 10.4727V6.91962Z" fill="#111B20" fill-opacity="0.56"/>
<path d="M221.026 6.91962L213.919 6.91962V10.4727L221.026 10.4727V6.91962Z" fill="#111B20" fill-opacity="0.56"/>
<path d="M211.005 6.91962L203.899 6.91962V10.4727L211.005 10.4727V6.91962Z" fill="#111B20" fill-opacity="0.56"/>
</svg>
